#!OML:ASF F:\VICON\USERDATA\INSTALL\rory3\rory3.ASF
:FULLY-SPECIFIED
:DEGREES
719
root -0.836256 18.0558 1.82691 359.523 -88.3238 -1.18216
lowerback 9.81055 1.78863 0.438874
upperback 0.609346 2.41866 0.3511
thorax -4.86221 1.17684 -0.214638
lowerneck -20.6394 -5.33613 -12.4085
upperneck 28.905 -6.69572 8.93385
head 14.0732 -3.23648 4.4611
rclavicle -1.96797e-014 -2.5842e-015
rhumerus -38.4377 -13.0165 -78.6417
rradius 33.3937
rwrist 5.57208
rhand -14.0871 8.91833
rfingers 7.12502
rthumb 12.0451 -20.715
lclavicle -1.96797e-014 -2.5842e-015
lhumerus -37.4361 4.36317 84
lradius 37.0538
lwrist -2.94337
lhand -17.8978 23.389
lfingers 7.12502
lthumb 8.36892 53.2032
rfemur -3.62142 -2.44623 24.5497
rtibia 23.8438
rfoot -14.4128 -4.90024
rtoes 13.8033
lfemur -0.985737 -5.3718 -20.6337
ltibia 16.1013
lfoot -8.35219 -0.411296
ltoes -9.09868
720
root -0.830861 18.0569 1.8186 361.551 -88.3776 -3.21391
lowerback 9.84586 1.77653 0.489576
upperback 0.611689 2.40817 0.351941
thorax -4.8775 1.17034 -0.241894
lowerneck -20.7534 -5.25343 -12.4886
upperneck 29.0973 -6.60743 9.09965
head 14.1793 -3.18874 4.56791
rclavicle 2.1183e-014 3.97569e-016
rhumerus -38.4502 -13.2058 -78.6183
rradius 33.3622
rwrist 5.68616
rhand -14.1198 8.92416
rfingers 7.12502
rthumb 12.0136 -20.711
lclavicle 2.1183e-014 3.97569e-016
lhumerus -37.4512 4.2981 83.9443
lradius 37.0192
lwrist -2.72482
lhand -17.9015 23.5439
lfingers 7.12502
lthumb 8.3654 53.3582
rfemur -3.5976 -2.32947 24.6482
rtibia 23.7763
rfoot -14.4443 -4.97781
rtoes 14.0689
lfemur -1.06636 -5.17405 -20.5259
ltibia 16.2166
lfoot -8.42257 -0.485287
ltoes -9.68325
721
root -0.826715 18.0612 1.81112 364.246 -88.4194 -5.90522
lowerback 9.87529 1.78425 0.551616
upperback 0.606696 2.42774 0.397641
thorax -4.89852 1.17888 -0.232986
lowerneck -20.7611 -5.29169 -12.2415
upperneck 29.1345 -6.64307 8.76437
head 14.177 -3.22065 4.37872
rclavicle 1.73191e-014 -1.98785e-016
rhumerus -38.4707 -13.0976 -78.6118
rradius 33.3444
rwrist 5.57283
rhand -14.0947 9.09112
rfingers 7.12502
rthumb 12.0378 -20.5427
lclavicle 1.73191e-014 -1.98785e-016
lhumerus -37.4532 4.23539 83.97
lradius 36.9576
lwrist -2.72414
lhand -18.0017 23.9217
lfingers 7.12502
lthumb 8.26871 53.7399
rfemur -3.5921 -2.31486 24.745
rtibia 23.7177
rfoot -14.4322 -4.95023
rtoes 14.3116
lfemur -1.11511 -5.09946 -20.4189
ltibia 16.2718
lfoot -8.46013 -0.489359
ltoes -9.84666
722
root -0.823112 18.0646 1.80588 366.229 -88.4737 -7.8672
lowerback 9.85812 1.79039 0.705413
upperback 0.611441 2.45032 0.350419
thorax -4.87522 1.18634 -0.370747
lowerneck -20.6855 -5.34539 -11.941
upperneck 29.0509 -6.75511 8.52804
head 14.1156 -3.26605 4.20404
rclavicle 3.94463e-014 1.78906e-015
rhumerus -38.4723 -13.125 -78.6723
rradius 33.317
rwrist 5.70338
rhand -14.0388 9.18046
rfingers 7.12502
rthumb 12.0917 -20.4502
lclavicle 3.94463e-014 1.78906e-015
lhumerus -37.3805 4.39919 83.7697
lradius 36.7795
lwrist -3.06498
lhand -18.0862 24.2108
lfingers 7.12502
lthumb 8.18713 54.0322
rfemur -3.60884 -2.39486 24.7978
rtibia 23.6626
rfoot -14.4011 -4.76698
rtoes 14.3248
lfemur -1.15825 -5.2375 -20.3747
ltibia 16.3087
lfoot -8.45512 -0.269136
ltoes -10.1568
723
root -0.819644 18.0644 1.80045 366.116 -88.5799 -7.7793
lowerback 9.87229 1.79402 0.740615
upperback 0.640238 2.45594 0.303847
thorax -4.8494 1.18788 -0.439536
lowerneck -20.6692 -5.34391 -11.9168
upperneck 29.0383 -6.79498 8.6159
head 14.1146 -3.2697 4.22848
rclavicle -7.51655e-015 -4.67144e-015
rhumerus -38.4423 -13.2199 -78.6934
rradius 33.3066
rwrist 5.91192
rhand -13.9832 9.11408
rfingers 7.12502
rthumb 12.1453 -20.5134
lclavicle -7.51655e-015 -4.67144e-015
lhumerus -37.3125 4.76798 83.4918
lradius 36.558
lwrist -3.43871
lhand -18.1263 23.9521
lfingers 7.12502
lthumb 8.1484 53.775
rfemur -3.58827 -2.27302 24.8096
rtibia 23.6452
rfoot -14.3997 -4.75884
rtoes 14.2664
lfemur -1.11999 -5.34853 -20.3869
ltibia 16.3004
lfoot -8.40956 -0.0807271
ltoes -10.1324
724
root -0.815855 18.063 1.79565 366.25 -88.6871 -7.96649
lowerback 9.93515 1.81899 0.742883
upperback 0.66915 2.48884 0.303954
thorax -4.85388 1.20367 -0.446807
lowerneck -20.6667 -5.3694 -11.9197
upperneck 29.0205 -6.82694 8.60671
head 14.1105 -3.28455 4.2184
rclavicle 3.88873e-015 -1.39149e-015
rhumerus -38.4391 -13.2396 -78.7101
rradius 33.3237
rwrist 5.76523
rhand -14.208 8.97323
rfingers 7.12502
rthumb 11.9285 -20.6669
lclavicle 3.88873e-015 -1.39149e-015
lhumerus -37.2568 4.65641 83.4631
lradius 36.3582
lwrist -3.28781
lhand -18.008 23.3838
lfingers 7.12502
lthumb 8.2626 53.2023
rfemur -3.56437 -2.11131 24.832
rtibia 23.6795
rfoot -14.4303 -4.89191
rtoes 13.9486
lfemur -1.03175 -5.38177 -20.3798
ltibia 16.2436
lfoot -8.34501 -0.0102589
ltoes -9.48698
725
root -0.812143 18.06 1.78996 363.254 -88.7823 -5.04099
lowerback 10.0338 1.86626 0.669013
upperback 0.6829 2.54424 0.318931
thorax -4.898 1.23207 -0.40074
lowerneck -20.6143 -5.39808 -11.9869
upperneck 29.0066 -6.83768 8.57017
head 14.0963 -3.30247 4.21255
rclavicle -1.33558e-014 1.39149e-015
rhumerus -38.4966 -13.2691 -78.6406
rradius 33.3211
rwrist 5.72148
rhand -14.437 9.04711
rfingers 7.12502
rthumb 11.7077 -20.6057
lclavicle -1.33558e-014 1.39149e-015
lhumerus -37.2372 4.10525 83.649
lradius 36.1742
lwrist -2.8016
lhand -18.0665 23.1531
lfingers 7.12502
lthumb 8.20612 52.9738
rfemur -3.53329 -2.02797 24.777
rtibia 23.743
rfoot -14.4979 -4.98842
rtoes 13.3859
lfemur -0.9235 -5.35873 -20.453
ltibia 16.1839
lfoot -8.29557 0.054877
ltoes -9.41705
726
root -0.808509 18.0579 1.78293 360.833 -88.845 -2.64213
lowerback 10.0805 1.88474 0.579568
upperback 0.683421 2.56037 0.348264
thorax -4.92875 1.24191 -0.324032
lowerneck -20.5738 -5.40015 -12.0549
upperneck 29.0053 -6.8103 8.53836
head 14.0851 -3.30354 4.21649
rclavicle -2.48108e-014 2.98177e-015
rhumerus -38.5254 -13.1655 -78.6145
rradius 33.3336
rwrist 5.70282
rhand -14.6181 9.01828
rfingers 7.12502
rthumb 11.5331 -20.6444
lclavicle -2.48108e-014 2.98177e-015
lhumerus -37.3252 3.70449 83.8109
lradius 36.2161
lwrist -2.35416
lhand -18.3633 23.6197
lfingers 7.12502
lthumb 7.9197 53.4513
rfemur -3.55586 -1.94185 24.7543
rtibia 23.807
rfoot -14.5248 -5.04554
rtoes 13.2206
lfemur -0.884625 -5.44129 -20.5197
ltibia 16.1725
lfoot -8.27413 0.269033
ltoes -10.027
727
root -0.804806 18.0579 1.77556 362.393 -88.9196 -4.18227
lowerback 10.0827 1.88286 0.570479
upperback 0.668392 2.55893 0.381492
thorax -4.94769 1.24166 -0.284594
lowerneck -20.5005 -5.37807 -12.0976
upperneck 28.9843 -6.77738 8.55608
head 14.0584 -3.29377 4.23734
rclavicle 5.32494e-014 5.56597e-015
rhumerus -38.5287 -12.9788 -78.6556
rradius 33.3261
rwrist 5.56109
rhand -14.7692 9.01813
rfingers 7.12502
rthumb 11.3873 -20.6527
lclavicle 5.32494e-014 5.56597e-015
lhumerus -37.4452 3.62332 83.8102
lradius 36.2804
lwrist -2.11577
lhand -18.5599 24.2608
lfingers 7.12502
lthumb 7.72991 54.0995
rfemur -3.62287 -2.02491 24.7939
rtibia 23.8383
rfoot -14.5375 -4.93354
rtoes 13.1421
lfemur -0.931619 -5.54271 -20.4845
ltibia 16.2214
lfoot -8.2599 0.471871
ltoes -10.2834
